# MagicaVoxel @ ephtracy

# material
mtllib bottom.mtl
usemtl palette

# normals
vn -1 0 0
vn 1 0 0
vn 0 0 1
vn 0 0 -1
vn 0 -1 0
vn 0 1 0

# texcoords
vt 0.666016 0.5
vt 0.669922 0.5
vt 0.958984 0.5

# verts
v -14.5 2 5.5
v -14.5 2 -8.5
v -14.5 16 5.5
v -14.5 16 -8.5
v -11.5 0 8.5
v -11.5 0 -12.5
v -11.5 2 5.5
v -11.5 2 -8.5
v -11.5 16 5.5
v -11.5 16 -8.5
v -11.5 19 8.5
v -11.5 19 -12.5
v -8.5 2 12.5
v -8.5 2 8.5
v -8.5 3 -12.5
v -8.5 3 -16.5
v -8.5 16 12.5
v -8.5 16 8.5
v -8.5 16 -12.5
v -8.5 16 -16.5
v -4.5 9 -0.5
v -4.5 9 -2.5
v -4.5 10 -0.5
v -4.5 10 -2.5
v -4.5 15 -0.5
v -4.5 15 -2.5
v -2.5 1 6.5
v -2.5 1 2.5
v -2.5 1 -4.5
v -2.5 4 6.5
v -2.5 4 2.5
v -2.5 4 1.5
v -2.5 9 1.5
v -2.5 9 -4.5
v 4.5 9 -0.5
v 4.5 9 -2.5
v 4.5 10 -0.5
v 4.5 10 -2.5
v 7.5 1 6.5
v 7.5 1 -4.5
v 7.5 4 6.5
v 7.5 4 1.5
v 7.5 9 1.5
v 7.5 9 -4.5
v -8.5 1 6.5
v -8.5 1 -4.5
v -8.5 4 6.5
v -8.5 4 1.5
v -8.5 9 1.5
v -8.5 9 -4.5
v -6.5 9 -0.5
v -6.5 9 -2.5
v -6.5 10 -0.5
v -6.5 10 -2.5
v -6.5 15 -0.5
v -6.5 15 -2.5
v 1.5 1 6.5
v 1.5 1 2.5
v 1.5 1 -4.5
v 1.5 4 6.5
v 1.5 4 2.5
v 1.5 4 1.5
v 1.5 9 1.5
v 1.5 9 -4.5
v 3.5 9 -0.5
v 3.5 9 -2.5
v 3.5 10 -0.5
v 3.5 10 -2.5
v 6.5 2 12.5
v 6.5 2 8.5
v 6.5 3 -12.5
v 6.5 3 -16.5
v 6.5 16 12.5
v 6.5 16 8.5
v 6.5 16 -12.5
v 6.5 16 -16.5
v 9.5 0 8.5
v 9.5 0 -12.5
v 9.5 3 4.5
v 9.5 3 -8.5
v 9.5 16 4.5
v 9.5 16 -8.5
v 9.5 19 8.5
v 9.5 19 -12.5
v 12.5 3 4.5
v 12.5 3 -8.5
v 12.5 16 4.5
v 12.5 16 -8.5
v -8.5 2 12.5
v -8.5 16 12.5
v 6.5 2 12.5
v 6.5 16 12.5
v -11.5 0 8.5
v -11.5 19 8.5
v -8.5 2 8.5
v -8.5 16 8.5
v 6.5 2 8.5
v 6.5 16 8.5
v 9.5 0 8.5
v 9.5 19 8.5
v -14.5 2 5.5
v -14.5 16 5.5
v -11.5 2 5.5
v -11.5 16 5.5
v 9.5 3 4.5
v 9.5 16 4.5
v 12.5 3 4.5
v 12.5 16 4.5
v -6.5 9 -2.5
v -6.5 10 -2.5
v -6.5 15 -2.5
v -4.5 9 -2.5
v -4.5 10 -2.5
v -4.5 15 -2.5
v 3.5 9 -2.5
v 3.5 10 -2.5
v 4.5 9 -2.5
v 4.5 10 -2.5
v -8.5 1 -4.5
v -8.5 9 -4.5
v -7.5 1 -4.5
v -7.5 9 -4.5
v -2.5 1 -4.5
v -2.5 9 -4.5
v 1.5 1 -4.5
v 1.5 9 -4.5
v 5.5 1 -4.5
v 5.5 9 -4.5
v 7.5 1 -4.5
v 7.5 9 -4.5
v -8.5 1 6.5
v -8.5 4 6.5
v -2.5 1 6.5
v -2.5 4 6.5
v 1.5 1 6.5
v 1.5 4 6.5
v 7.5 1 6.5
v 7.5 4 6.5
v -8.5 4 1.5
v -8.5 9 1.5
v -7.5 4 1.5
v -7.5 9 1.5
v -2.5 4 1.5
v -2.5 9 1.5
v 1.5 4 1.5
v 1.5 9 1.5
v 5.5 4 1.5
v 5.5 9 1.5
v 7.5 4 1.5
v 7.5 9 1.5
v -6.5 9 -0.5
v -6.5 10 -0.5
v -6.5 15 -0.5
v -4.5 9 -0.5
v -4.5 10 -0.5
v -4.5 15 -0.5
v 3.5 9 -0.5
v 3.5 10 -0.5
v 4.5 9 -0.5
v 4.5 10 -0.5
v -14.5 2 -8.5
v -14.5 16 -8.5
v -11.5 2 -8.5
v -11.5 16 -8.5
v 9.5 3 -8.5
v 9.5 16 -8.5
v 12.5 3 -8.5
v 12.5 16 -8.5
v -11.5 0 -12.5
v -11.5 19 -12.5
v -8.5 3 -12.5
v -8.5 16 -12.5
v 6.5 3 -12.5
v 6.5 16 -12.5
v 9.5 0 -12.5
v 9.5 19 -12.5
v -8.5 3 -16.5
v -8.5 16 -16.5
v 6.5 3 -16.5
v 6.5 16 -16.5
v -11.5 0 8.5
v 9.5 0 8.5
v -11.5 0 -12.5
v 9.5 0 -12.5
v -8.5 2 12.5
v 6.5 2 12.5
v -8.5 2 8.5
v 6.5 2 8.5
v -14.5 2 5.5
v -11.5 2 5.5
v -14.5 2 -8.5
v -11.5 2 -8.5
v 9.5 3 4.5
v 12.5 3 4.5
v 9.5 3 -8.5
v 12.5 3 -8.5
v -8.5 3 -12.5
v 6.5 3 -12.5
v -8.5 3 -16.5
v 6.5 3 -16.5
v -8.5 4 6.5
v -2.5 4 6.5
v 1.5 4 6.5
v 7.5 4 6.5
v -7.5 4 2.5
v -2.5 4 2.5
v 1.5 4 2.5
v 5.5 4 2.5
v -8.5 4 1.5
v -7.5 4 1.5
v -2.5 4 1.5
v 1.5 4 1.5
v 5.5 4 1.5
v 7.5 4 1.5
v -8.5 9 1.5
v -7.5 9 1.5
v -2.5 9 1.5
v 1.5 9 1.5
v 5.5 9 1.5
v 7.5 9 1.5
v -6.5 9 -0.5
v -4.5 9 -0.5
v 3.5 9 -0.5
v 4.5 9 -0.5
v -6.5 9 -2.5
v -4.5 9 -2.5
v 3.5 9 -2.5
v 4.5 9 -2.5
v -8.5 9 -4.5
v -7.5 9 -4.5
v -2.5 9 -4.5
v 1.5 9 -4.5
v 5.5 9 -4.5
v 7.5 9 -4.5
v 3.5 10 -0.5
v 4.5 10 -0.5
v 3.5 10 -2.5
v 4.5 10 -2.5
v -6.5 15 -0.5
v -4.5 15 -0.5
v -6.5 15 -2.5
v -4.5 15 -2.5
v -8.5 1 6.5
v -2.5 1 6.5
v 1.5 1 6.5
v 7.5 1 6.5
v -2.5 1 2.5
v 1.5 1 2.5
v -8.5 1 -4.5
v -7.5 1 -4.5
v -2.5 1 -4.5
v 1.5 1 -4.5
v 5.5 1 -4.5
v 7.5 1 -4.5
v -8.5 16 12.5
v 6.5 16 12.5
v -8.5 16 8.5
v 6.5 16 8.5
v -14.5 16 5.5
v -11.5 16 5.5
v 9.5 16 4.5
v 12.5 16 4.5
v -14.5 16 -8.5
v -11.5 16 -8.5
v 9.5 16 -8.5
v 12.5 16 -8.5
v -8.5 16 -12.5
v 6.5 16 -12.5
v -8.5 16 -16.5
v 6.5 16 -16.5
v -11.5 19 8.5
v 9.5 19 8.5
v -11.5 19 -12.5
v 9.5 19 -12.5

# faces
f 3/3/1 2/3/1 1/3/1
f 4/3/1 2/3/1 3/3/1
f 7/3/1 6/3/1 5/3/1
f 8/3/1 6/3/1 7/3/1
f 9/3/1 7/3/1 5/3/1
f 10/3/1 6/3/1 8/3/1
f 11/3/1 9/3/1 5/3/1
f 11/3/1 10/3/1 9/3/1
f 12/3/1 6/3/1 10/3/1
f 12/3/1 10/3/1 11/3/1
f 17/3/1 14/3/1 13/3/1
f 18/3/1 14/3/1 17/3/1
f 19/3/1 16/3/1 15/3/1
f 20/3/1 16/3/1 19/3/1
f 23/2/1 22/2/1 21/2/1
f 24/2/1 22/2/1 23/2/1
f 25/1/1 24/1/1 23/1/1
f 26/1/1 24/1/1 25/1/1
f 30/3/1 28/3/1 27/3/1
f 31/2/1 29/2/1 28/2/1
f 31/3/1 28/3/1 30/3/1
f 32/2/1 29/2/1 31/2/1
f 33/2/1 29/2/1 32/2/1
f 34/2/1 29/2/1 33/2/1
f 37/2/1 36/2/1 35/2/1
f 38/2/1 36/2/1 37/2/1
f 41/3/1 40/3/1 39/3/1
f 42/3/1 40/3/1 41/3/1
f 43/3/1 40/3/1 42/3/1
f 44/3/1 40/3/1 43/3/1
f 45/3/2 46/3/2 47/3/2
f 47/3/2 46/3/2 48/3/2
f 48/3/2 46/3/2 49/3/2
f 49/3/2 46/3/2 50/3/2
f 51/2/2 52/2/2 53/2/2
f 53/2/2 52/2/2 54/2/2
f 53/1/2 54/1/2 55/1/2
f 55/1/2 54/1/2 56/1/2
f 57/3/2 58/3/2 60/3/2
f 58/2/2 59/2/2 61/2/2
f 60/3/2 58/3/2 61/3/2
f 61/2/2 59/2/2 62/2/2
f 62/2/2 59/2/2 63/2/2
f 63/2/2 59/2/2 64/2/2
f 65/2/2 66/2/2 67/2/2
f 67/2/2 66/2/2 68/2/2
f 69/3/2 70/3/2 73/3/2
f 73/3/2 70/3/2 74/3/2
f 71/3/2 72/3/2 75/3/2
f 75/3/2 72/3/2 76/3/2
f 77/3/2 78/3/2 79/3/2
f 79/3/2 78/3/2 80/3/2
f 77/3/2 79/3/2 81/3/2
f 80/3/2 78/3/2 82/3/2
f 77/3/2 81/3/2 83/3/2
f 81/3/2 82/3/2 83/3/2
f 82/3/2 78/3/2 84/3/2
f 83/3/2 82/3/2 84/3/2
f 85/3/2 86/3/2 87/3/2
f 87/3/2 86/3/2 88/3/2
f 91/3/3 90/3/3 89/3/3
f 92/3/3 90/3/3 91/3/3
f 95/3/3 94/3/3 93/3/3
f 96/3/3 94/3/3 95/3/3
f 97/3/3 95/3/3 93/3/3
f 98/3/3 94/3/3 96/3/3
f 99/3/3 97/3/3 93/3/3
f 99/3/3 98/3/3 97/3/3
f 100/3/3 94/3/3 98/3/3
f 100/3/3 98/3/3 99/3/3
f 103/3/3 102/3/3 101/3/3
f 104/3/3 102/3/3 103/3/3
f 107/3/3 106/3/3 105/3/3
f 108/3/3 106/3/3 107/3/3
f 112/2/3 110/2/3 109/2/3
f 113/1/3 111/1/3 110/1/3
f 113/2/3 110/2/3 112/2/3
f 114/1/3 111/1/3 113/1/3
f 117/2/3 116/2/3 115/2/3
f 118/2/3 116/2/3 117/2/3
f 121/3/3 120/3/3 119/3/3
f 122/3/3 120/3/3 121/3/3
f 123/2/3 122/2/3 121/2/3
f 124/2/3 122/2/3 123/2/3
f 127/2/3 126/2/3 125/2/3
f 128/2/3 126/2/3 127/2/3
f 129/3/3 128/3/3 127/3/3
f 130/3/3 128/3/3 129/3/3
f 131/3/4 132/3/4 133/3/4
f 133/3/4 132/3/4 134/3/4
f 135/3/4 136/3/4 137/3/4
f 137/3/4 136/3/4 138/3/4
f 139/3/4 140/3/4 141/3/4
f 141/3/4 140/3/4 142/3/4
f 141/2/4 142/2/4 143/2/4
f 143/2/4 142/2/4 144/2/4
f 145/2/4 146/2/4 147/2/4
f 147/2/4 146/2/4 148/2/4
f 147/3/4 148/3/4 149/3/4
f 149/3/4 148/3/4 150/3/4
f 151/2/4 152/2/4 154/2/4
f 152/1/4 153/1/4 155/1/4
f 154/2/4 152/2/4 155/2/4
f 155/1/4 153/1/4 156/1/4
f 157/2/4 158/2/4 159/2/4
f 159/2/4 158/2/4 160/2/4
f 161/3/4 162/3/4 163/3/4
f 163/3/4 162/3/4 164/3/4
f 165/3/4 166/3/4 167/3/4
f 167/3/4 166/3/4 168/3/4
f 169/3/4 170/3/4 171/3/4
f 171/3/4 170/3/4 172/3/4
f 169/3/4 171/3/4 173/3/4
f 172/3/4 170/3/4 174/3/4
f 169/3/4 173/3/4 175/3/4
f 173/3/4 174/3/4 175/3/4
f 174/3/4 170/3/4 176/3/4
f 175/3/4 174/3/4 176/3/4
f 177/3/4 178/3/4 179/3/4
f 179/3/4 178/3/4 180/3/4
f 183/3/5 182/3/5 181/3/5
f 184/3/5 182/3/5 183/3/5
f 187/3/5 186/3/5 185/3/5
f 188/3/5 186/3/5 187/3/5
f 191/3/5 190/3/5 189/3/5
f 192/3/5 190/3/5 191/3/5
f 195/3/5 194/3/5 193/3/5
f 196/3/5 194/3/5 195/3/5
f 199/3/5 198/3/5 197/3/5
f 200/3/5 198/3/5 199/3/5
f 205/3/5 202/3/5 201/3/5
f 206/3/5 202/3/5 205/3/5
f 207/3/5 204/3/5 203/3/5
f 208/3/5 204/3/5 207/3/5
f 209/3/5 205/3/5 201/3/5
f 210/2/5 206/2/5 205/2/5
f 210/3/5 205/3/5 209/3/5
f 211/2/5 206/2/5 210/2/5
f 212/2/5 208/2/5 207/2/5
f 213/3/5 204/3/5 208/3/5
f 213/2/5 208/2/5 212/2/5
f 214/3/5 204/3/5 213/3/5
f 221/2/5 217/2/5 216/2/5
f 222/2/5 217/2/5 221/2/5
f 223/2/5 219/2/5 218/2/5
f 224/2/5 219/2/5 223/2/5
f 225/2/5 221/2/5 216/2/5
f 226/2/5 217/2/5 222/2/5
f 227/2/5 223/2/5 218/2/5
f 228/2/5 219/2/5 224/2/5
f 229/3/5 216/3/5 215/3/5
f 230/2/5 225/2/5 216/2/5
f 230/3/5 216/3/5 229/3/5
f 230/2/5 226/2/5 225/2/5
f 231/2/5 217/2/5 226/2/5
f 231/2/5 226/2/5 230/2/5
f 232/2/5 228/2/5 227/2/5
f 232/2/5 227/2/5 218/2/5
f 233/3/5 220/3/5 219/3/5
f 233/2/5 228/2/5 232/2/5
f 233/2/5 219/2/5 228/2/5
f 234/3/5 220/3/5 233/3/5
f 237/3/5 236/3/5 235/3/5
f 238/3/5 236/3/5 237/3/5
f 241/3/5 240/3/5 239/3/5
f 242/3/5 240/3/5 241/3/5
f 243/3/6 244/3/6 247/3/6
f 245/3/6 246/3/6 248/3/6
f 243/3/6 247/3/6 249/3/6
f 249/3/6 247/3/6 250/3/6
f 250/3/6 247/3/6 251/3/6
f 248/3/6 246/3/6 252/3/6
f 252/3/6 246/3/6 253/3/6
f 253/3/6 246/3/6 254/3/6
f 255/3/6 256/3/6 257/3/6
f 257/3/6 256/3/6 258/3/6
f 259/3/6 260/3/6 263/3/6
f 263/3/6 260/3/6 264/3/6
f 261/3/6 262/3/6 265/3/6
f 265/3/6 262/3/6 266/3/6
f 267/3/6 268/3/6 269/3/6
f 269/3/6 268/3/6 270/3/6
f 271/3/6 272/3/6 273/3/6
f 273/3/6 272/3/6 274/3/6
